<svg xmlns="http://www.w3.org/2000/svg" xmlns:xlink="http://www.w3.org/1999/xlink" width="268" zoomAndPan="magnify" viewBox="0 0 200.87999 162.749997" height="217" preserveAspectRatio="xMidYMid meet" version="1.0"><defs><clipPath id="7a0778892f"><path d="M 0.09375 0 L 200.667969 0 L 200.667969 162.5 L 0.09375 162.5 Z M 0.09375 0 " clip-rule="nonzero"/></clipPath><clipPath id="7082611611"><path d="M 0.09375 77 L 4 77 L 4 100 L 0.09375 100 Z M 0.09375 77 " clip-rule="nonzero"/></clipPath><clipPath id="8442c0bbf0"><path d="M 0.09375 92 L 2 92 L 2 114 L 0.09375 114 Z M 0.09375 92 " clip-rule="nonzero"/></clipPath><clipPath id="03573b5037"><path d="M 18 150 L 33 150 L 33 161.75 L 18 161.75 Z M 18 150 " clip-rule="nonzero"/></clipPath></defs><g clip-path="url(#7a0778892f)"><path fill="#ffffff" d="M 0.09375 0 L 200.785156 0 L 200.785156 162.5 L 0.09375 162.5 Z M 0.09375 0 " fill-opacity="1" fill-rule="nonzero"/></g><path fill="#393536" d="M 58.890625 10.660156 C 59.0625 10.09375 59.324219 9.738281 59.660156 9.578125 L 64.214844 7.597656 C 68.492188 6.054688 74.25 4.140625 78.628906 2.910156 L 80.777344 2.417969 C 80.417969 2.558594 80.140625 2.917969 79.960938 3.507812 C 76.679688 4.644531 72.316406 6.203125 69.117188 7.554688 C 66.027344 8.40625 61.910156 9.582031 58.890625 10.660156 " fill-opacity="1" fill-rule="nonzero"/><path fill="#393536" d="M 37.558594 23.929688 C 37.691406 23.511719 37.867188 23.207031 38.097656 23.023438 L 38.171875 22.960938 C 46.78125 16.542969 46.945312 16.417969 51.785156 13.648438 L 56.5625 11.078125 C 56.238281 11.242188 55.988281 11.597656 55.820312 12.144531 C 52.859375 14.027344 48.925781 16.578125 46.09375 18.648438 C 43.492188 20.167969 40.035156 22.222656 37.558594 23.929688 " fill-opacity="1" fill-rule="nonzero"/><path fill="#393536" d="M 196.230469 59.429688 L 196.320312 59.492188 L 198.3125 64.289062 L 196.230469 59.429688 " fill-opacity="1" fill-rule="nonzero"/><path fill="#393536" d="M 189.746094 48.148438 C 189.78125 48.039062 189.832031 47.976562 189.894531 47.949219 C 191.589844 50.808594 193.824219 54.644531 195.347656 57.597656 L 198.3125 64.289062 L 195.230469 57.753906 C 193.632812 54.847656 191.480469 50.976562 189.746094 48.148438 " fill-opacity="1" fill-rule="nonzero"/><path fill="#393536" d="M 173.839844 29.179688 C 173.917969 28.9375 174.03125 28.789062 174.179688 28.730469 C 176.484375 31.019531 179.535156 34.09375 181.703125 36.511719 C 183.652344 39.070312 186.234375 42.5 188.058594 45.152344 C 187.984375 45.183594 187.921875 45.257812 187.886719 45.382812 C 185.929688 42.886719 183.296875 39.570312 181.1875 37.203125 C 179.023438 34.761719 176.113281 31.519531 173.839844 29.179688 " fill-opacity="1" fill-rule="nonzero"/><path fill="#393536" d="M 154.238281 14.753906 C 154.347656 14.390625 154.519531 14.164062 154.742188 14.078125 C 157.523438 15.746094 161.214844 17.992188 163.890625 19.820312 C 166.296875 21.78125 169.492188 24.425781 171.789062 26.511719 C 171.632812 26.574219 171.507812 26.734375 171.429688 26.992188 C 168.949219 25.136719 165.621094 22.679688 163.019531 20.988281 C 160.414062 19.074219 156.929688 16.542969 154.238281 14.753906 " fill-opacity="1" fill-rule="nonzero"/><path fill="#393536" d="M 131.9375 5.277344 C 132.078125 4.816406 132.292969 4.527344 132.582031 4.417969 C 135.699219 5.40625 139.851562 6.757812 142.902344 7.933594 C 145.640625 9.246094 149.28125 11.03125 151.9375 12.5 C 151.703125 12.589844 151.527344 12.824219 151.410156 13.199219 C 148.53125 12.027344 144.679688 10.488281 141.730469 9.507812 C 138.816406 8.1875 134.914062 6.445312 131.9375 5.277344 " fill-opacity="1" fill-rule="nonzero"/><path fill="#393536" d="M 107.9375 1.167969 C 108.101562 0.628906 108.355469 0.296875 108.6875 0.167969 C 111.917969 0.421875 116.230469 0.78125 119.441406 1.234375 L 119.882812 1.304688 C 122.777344 1.910156 126.636719 2.746094 129.488281 3.535156 C 129.195312 3.648438 128.972656 3.9375 128.828125 4.414062 C 125.683594 3.96875 121.480469 3.40625 118.3125 3.175781 C 115.214844 2.511719 111.070312 1.648438 107.9375 1.167969 " fill-opacity="1" fill-rule="nonzero"/><path fill="#393536" d="M 83.238281 2.828125 C 83.417969 2.246094 83.691406 1.886719 84.050781 1.746094 L 88.308594 1.015625 C 90.785156 0.753906 94.082031 0.308594 96.566406 0.144531 L 99.609375 -0.00390625 L 105.4375 0.03125 C 105.101562 0.164062 104.847656 0.5 104.679688 1.046875 C 101.398438 1.371094 97.027344 1.839844 93.777344 2.390625 C 90.613281 2.445312 86.390625 2.558594 83.238281 2.828125 " fill-opacity="1" fill-rule="nonzero"/><path fill="#393536" d="M 20.628906 41.410156 C 20.707031 41.152344 20.804688 40.945312 20.925781 40.785156 C 22.570312 38.777344 24.703125 36.050781 26.429688 34.113281 C 29.105469 31.363281 32.714844 27.734375 35.554688 25.152344 C 35.34375 25.339844 35.175781 25.628906 35.050781 26.03125 C 32.648438 28.472656 29.46875 31.761719 27.21875 34.347656 C 25.183594 36.414062 22.5 39.199219 20.628906 41.410156 " fill-opacity="1" fill-rule="nonzero"/><path fill="#393536" d="M 196.136719 59.753906 C 196.128906 59.683594 196.125 59.621094 196.125 59.574219 L 198.3125 64.289062 L 196.136719 59.753906 " fill-opacity="1" fill-rule="nonzero"/><path fill="#393536" d="M 182.492188 39.894531 C 182.445312 39.480469 182.425781 39.136719 182.4375 38.859375 C 184.453125 41.289062 187.117188 44.550781 188.972656 47.101562 C 190.703125 49.921875 192.992188 53.695312 194.585938 56.59375 C 194.585938 56.671875 194.589844 56.773438 194.601562 56.890625 C 192.996094 54.320312 190.824219 50.902344 189.042969 48.449219 C 187.117188 45.855469 183.742188 42.875 182.492188 39.894531 " fill-opacity="1" fill-rule="nonzero"/><path fill="#393536" d="M 164.640625 24.238281 C 164.558594 23.515625 164.527344 22.917969 164.546875 22.433594 C 167.070312 24.191406 170.414062 26.566406 172.8125 28.484375 C 175.089844 30.832031 178.113281 33.980469 180.28125 36.425781 C 180.269531 36.730469 180.289062 37.109375 180.339844 37.566406 C 178.175781 35.671875 175.265625 33.171875 172.96875 31.449219 C 170.5 29.25 166.21875 27.136719 164.640625 24.238281 " fill-opacity="1" fill-rule="nonzero"/><path fill="#393536" d="M 143.582031 13.15625 C 143.46875 12.171875 143.429688 11.351562 143.457031 10.695312 C 146.347656 11.742188 150.199219 13.171875 153.011719 14.414062 C 155.710938 16.226562 159.296875 18.664062 161.910156 20.597656 C 161.890625 21.105469 161.921875 21.734375 162.007812 22.492188 C 159.40625 21.3125 155.921875 19.769531 153.238281 18.800781 C 150.367188 17.066406 146.523438 14.773438 143.582031 13.15625 " fill-opacity="1" fill-rule="nonzero"/><path fill="#393536" d="M 120.316406 7.027344 C 120.179688 5.832031 120.132812 4.839844 120.164062 4.042969 C 123.296875 4.34375 127.472656 4.785156 130.574219 5.300781 C 133.566406 6.511719 137.542969 8.152344 140.46875 9.511719 C 140.441406 10.191406 140.484375 11.035156 140.597656 12.050781 C 137.6875 11.613281 133.796875 11.066406 130.859375 10.855469 C 127.714844 9.660156 123.511719 8.082031 120.316406 7.027344 " fill-opacity="1" fill-rule="nonzero"/><path fill="#393536" d="M 95.84375 6.21875 C 95.691406 4.882812 95.636719 3.769531 95.675781 2.875 C 98.910156 2.402344 103.234375 1.804688 106.496094 1.554688 C 109.648438 2.09375 113.847656 2.84375 116.960938 3.5625 C 116.929688 4.378906 116.980469 5.386719 117.117188 6.605469 C 114.019531 6.9375 109.890625 7.417969 106.828125 7.980469 C 103.542969 7.390625 99.15625 6.632812 95.84375 6.21875 " fill-opacity="1" fill-rule="nonzero"/><path fill="#393536" d="M 71.164062 11.109375 C 71.003906 9.703125 70.945312 8.53125 70.984375 7.589844 C 74.195312 6.3125 78.492188 4.640625 81.78125 3.582031 C 84.957031 3.378906 89.203125 3.144531 92.386719 3.152344 C 92.347656 4.054688 92.40625 5.183594 92.558594 6.53125 C 89.40625 7.65625 85.210938 9.191406 82.140625 10.519531 C 78.84375 10.625 74.445312 10.792969 71.164062 11.109375 " fill-opacity="1" fill-rule="nonzero"/><path fill="#393536" d="M 47.890625 21.738281 C 47.730469 20.34375 47.671875 19.1875 47.710938 18.257812 C 50.605469 16.238281 54.488281 13.574219 57.507812 11.75 C 60.554688 10.75 64.632812 9.453125 67.746094 8.679688 C 67.707031 9.621094 67.765625 10.796875 67.925781 12.207031 C 64.867188 14.117188 60.804688 16.699219 57.871094 18.800781 C 54.855469 19.605469 50.839844 20.71875 47.890625 21.738281 " fill-opacity="1" fill-rule="nonzero"/><path fill="#393536" d="M 28.65625 36.820312 C 28.511719 35.527344 28.457031 34.449219 28.492188 33.585938 C 30.816406 31.035156 33.9375 27.65625 36.410156 25.253906 C 38.917969 23.621094 42.285156 21.480469 44.910156 20.046875 C 44.871094 20.96875 44.929688 22.121094 45.085938 23.503906 C 42.535156 26 39.160156 29.351562 36.757812 31.988281 C 34.285156 33.367188 31.007812 35.242188 28.65625 36.820312 " fill-opacity="1" fill-rule="nonzero"/><path fill="#393536" d="M 14.027344 55.367188 C 13.898438 54.242188 13.851562 53.300781 13.886719 52.550781 C 15.585938 49.617188 17.878906 45.714844 19.738281 42.882812 C 21.644531 40.742188 24.214844 37.902344 26.28125 35.914062 C 26.246094 36.765625 26.296875 37.828125 26.441406 39.105469 C 24.472656 42.015625 21.867188 45.914062 20.050781 48.921875 C 18.1875 50.800781 15.722656 53.335938 14.027344 55.367188 " fill-opacity="1" fill-rule="nonzero"/><path fill="#393536" d="M 4.410156 76.421875 C 4.308594 75.523438 4.273438 74.78125 4.296875 74.179688 C 5.320312 71.003906 6.710938 66.773438 7.90625 63.652344 C 9.167969 61.113281 10.875 57.734375 12.316406 55.289062 C 12.285156 56.023438 12.332031 56.9375 12.453125 58.035156 C 11.113281 61.203125 9.351562 65.445312 8.164062 68.671875 C 6.972656 70.964844 5.410156 74.039062 4.410156 76.421875 " fill-opacity="1" fill-rule="nonzero"/><g clip-path="url(#7082611611)"><path fill="#393536" d="M 0.214844 99.042969 C 0.144531 98.425781 0.117188 97.914062 0.132812 97.503906 L 0.199219 96.425781 L 0.632812 91.535156 L 1.527344 85.34375 C 2.0625 82.894531 2.75 79.617188 3.421875 77.199219 C 3.398438 77.773438 3.4375 78.492188 3.53125 79.351562 C 2.871094 82.628906 2.011719 87.003906 1.507812 90.308594 C 1.050781 92.917969 0.476562 96.40625 0.214844 99.042969 " fill-opacity="1" fill-rule="nonzero"/></g><path fill="#393536" d="M 190.046875 50.75 C 190.03125 50.695312 190.019531 50.640625 190.007812 50.585938 C 189.933594 50.257812 189.871094 49.957031 189.824219 49.6875 C 191.511719 52.175781 193.734375 55.523438 195.25 58.121094 L 198.3125 64.289062 L 195.425781 58.96875 C 193.851562 56.476562 191.246094 53.441406 190.046875 50.75 " fill-opacity="1" fill-rule="nonzero"/><path fill="#393536" d="M 174.523438 35.160156 C 174.496094 35.03125 174.464844 34.90625 174.4375 34.785156 C 174.265625 34.023438 174.125 33.332031 174.019531 32.71875 C 176.242188 34.484375 179.183594 36.875 181.265625 38.808594 C 183.316406 41.296875 186.03125 44.628906 187.976562 47.203125 C 188.03125 47.519531 188.101562 47.871094 188.191406 48.261719 C 188.207031 48.324219 188.222656 48.390625 188.238281 48.453125 C 186.429688 46.613281 183.996094 44.179688 182.035156 42.503906 C 179.808594 40.273438 176.101562 37.886719 174.523438 35.160156 " fill-opacity="1" fill-rule="nonzero"/><path fill="#393536" d="M 155.261719 23.703125 C 155.214844 23.515625 155.171875 23.328125 155.132812 23.144531 C 154.871094 22.003906 154.664062 20.972656 154.5 20.050781 C 157.125 21.074219 160.617188 22.472656 163.152344 23.703125 C 165.722656 25.792969 169.132812 28.597656 171.617188 30.78125 C 171.734375 31.441406 171.882812 32.175781 172.070312 32.992188 C 172.097656 33.125 172.128906 33.257812 172.160156 33.394531 C 169.882812 32.289062 166.824219 30.851562 164.453125 29.964844 C 161.714844 28.058594 157.171875 26.4375 155.261719 23.703125 " fill-opacity="1" fill-rule="nonzero"/><path fill="#393536" d="M 133.238281 16.691406 C 133.183594 16.449219 133.128906 16.210938 133.074219 15.976562 C 132.746094 14.523438 132.480469 13.210938 132.273438 12.03125 C 135.171875 12.296875 139.039062 12.683594 141.90625 13.175781 C 144.863281 14.796875 148.792969 16.980469 151.6875 18.710938 C 151.855469 19.671875 152.074219 20.742188 152.339844 21.929688 C 152.382812 22.121094 152.429688 22.316406 152.472656 22.511719 C 149.839844 22.167969 146.320312 21.742188 143.664062 21.628906 C 140.550781 20.113281 136.394531 18.109375 133.238281 16.691406 " fill-opacity="1" fill-rule="nonzero"/><path fill="#393536" d="M 109.449219 14.421875 C 109.386719 14.140625 109.320312 13.867188 109.261719 13.589844 C 108.878906 11.902344 108.566406 10.378906 108.328125 9.011719 C 111.375 8.507812 115.449219 7.867188 118.527344 7.589844 C 121.738281 8.664062 126.011719 10.125 129.171875 11.335938 C 129.382812 12.542969 129.65625 13.886719 129.996094 15.378906 C 130.046875 15.621094 130.105469 15.863281 130.164062 16.109375 C 127.292969 16.53125 123.46875 17.128906 120.640625 17.765625 C 117.296875 16.722656 112.832031 15.347656 109.449219 14.421875 " fill-opacity="1" fill-rule="nonzero"/><path fill="#393536" d="M 84.882812 17.199219 C 84.808594 16.898438 84.742188 16.597656 84.671875 16.300781 C 84.257812 14.46875 83.921875 12.816406 83.660156 11.335938 C 86.738281 10.054688 90.859375 8.378906 94.015625 7.3125 C 97.34375 7.757812 101.777344 8.386719 105.074219 9.007812 C 105.316406 10.390625 105.632812 11.9375 106.019531 13.652344 C 106.082031 13.929688 106.148438 14.210938 106.214844 14.492188 C 103.234375 15.675781 99.269531 17.289062 96.371094 18.660156 C 92.933594 18.167969 88.339844 17.535156 84.882812 17.199219 " fill-opacity="1" fill-rule="nonzero"/><path fill="#393536" d="M 60.5625 25.308594 C 60.488281 24.996094 60.421875 24.691406 60.351562 24.386719 C 59.929688 22.523438 59.585938 20.839844 59.320312 19.328125 C 62.292969 17.277344 66.277344 14.570312 69.367188 12.707031 C 72.667969 12.441406 77.078125 12.121094 80.386719 12.066406 C 80.648438 13.554688 80.988281 15.21875 81.40625 17.058594 C 81.472656 17.359375 81.542969 17.660156 81.613281 17.964844 C 78.644531 19.894531 74.699219 22.5 71.835938 24.582031 C 68.449219 24.738281 63.933594 24.972656 60.5625 25.308594 " fill-opacity="1" fill-rule="nonzero"/><path fill="#393536" d="M 39.164062 37.96875 C 39.09375 37.675781 39.027344 37.382812 38.960938 37.09375 C 38.554688 35.304688 38.226562 33.6875 37.972656 32.242188 C 40.429688 29.636719 43.734375 26.183594 46.339844 23.71875 C 49.289062 22.769531 53.242188 21.535156 56.253906 20.796875 C 56.515625 22.300781 56.859375 23.984375 57.28125 25.84375 C 57.347656 26.144531 57.417969 26.453125 57.488281 26.757812 C 54.828125 29.308594 51.296875 32.730469 48.769531 35.410156 C 45.871094 36.117188 42.007812 37.078125 39.164062 37.96875 " fill-opacity="1" fill-rule="nonzero"/><path fill="#393536" d="M 22.070312 54.046875 C 22.007812 53.78125 21.945312 53.515625 21.890625 53.253906 C 21.523438 51.644531 21.230469 50.191406 21 48.890625 C 22.882812 45.902344 25.414062 41.929688 27.445312 39.039062 C 29.808594 37.535156 32.984375 35.5625 35.460938 34.253906 C 35.710938 35.6875 36.039062 37.285156 36.4375 39.058594 C 36.503906 39.34375 36.570312 39.632812 36.640625 39.925781 C 34.511719 42.875 31.691406 46.824219 29.695312 49.863281 C 27.371094 51.050781 24.285156 52.667969 22.070312 54.046875 " fill-opacity="1" fill-rule="nonzero"/><path fill="#393536" d="M 9.707031 72.65625 C 9.65625 72.433594 9.605469 72.210938 9.554688 71.996094 C 9.25 70.652344 9.003906 69.4375 8.816406 68.351562 C 10.070312 65.132812 11.773438 60.851562 13.179688 57.695312 C 14.894531 55.734375 17.214844 53.136719 19.097656 51.332031 C 19.320312 52.605469 19.613281 54.035156 19.96875 55.613281 C 20.027344 55.871094 20.085938 56.128906 20.148438 56.390625 C 18.597656 59.566406 16.550781 63.816406 15.125 67.054688 C 13.445312 68.675781 11.222656 70.875 9.707031 72.65625 " fill-opacity="1" fill-rule="nonzero"/><path fill="#393536" d="M 2.496094 92.921875 C 2.457031 92.753906 2.421875 92.589844 2.382812 92.425781 C 2.15625 91.425781 1.972656 90.515625 1.832031 89.707031 C 2.414062 86.410156 3.214844 82.015625 3.953125 78.75 C 4.972656 76.421875 6.363281 73.328125 7.578125 71.097656 C 7.761719 72.148438 8.003906 73.324219 8.296875 74.628906 C 8.34375 74.839844 8.394531 75.050781 8.445312 75.269531 C 7.515625 78.515625 6.292969 82.851562 5.488281 86.132812 C 4.519531 88.136719 3.257812 90.832031 2.496094 92.921875 " fill-opacity="1" fill-rule="nonzero"/><g clip-path="url(#8442c0bbf0)"><path fill="#393536" d="M 0.859375 113.964844 C 0.835938 113.863281 0.8125 113.765625 0.789062 113.667969 C 0.65625 113.0625 0.542969 112.519531 0.457031 112.03125 C 0.316406 108.800781 0.152344 104.492188 0.175781 101.261719 C 0.449219 98.664062 0.84375 95.199219 1.316406 92.632812 C 1.449219 93.402344 1.625 94.265625 1.84375 95.21875 C 1.878906 95.371094 1.914062 95.527344 1.949219 95.6875 C 1.679688 98.855469 1.339844 103.078125 1.210938 106.253906 C 1.035156 108.5625 0.835938 111.648438 0.859375 113.964844 " fill-opacity="1" fill-rule="nonzero"/></g><path fill="#393536" d="M 196.40625 60.917969 C 196.363281 60.773438 196.328125 60.640625 196.292969 60.511719 L 198.3125 64.289062 L 196.40625 60.917969 " fill-opacity="1" fill-rule="nonzero"/><path fill="#393536" d="M 184.039062 46.511719 C 183.796875 45.699219 183.582031 44.925781 183.390625 44.199219 C 185.246094 45.921875 187.699219 48.25 189.394531 50.128906 C 191.074219 52.503906 193.296875 55.683594 194.863281 58.136719 C 194.917969 58.34375 194.980469 58.566406 195.050781 58.804688 C 193.664062 57.054688 191.792969 54.734375 190.234375 53.136719 C 188.402344 51.125 185.417969 48.859375 184.039062 46.511719 " fill-opacity="1" fill-rule="nonzero"/><path fill="#393536" d="M 167.335938 35.777344 C 166.917969 34.355469 166.539062 33.007812 166.207031 31.742188 C 168.5 32.6875 171.546875 33.988281 173.738281 35.148438 C 176.042969 37.273438 179.101562 40.117188 181.332031 42.320312 C 181.546875 43.121094 181.785156 43.972656 182.046875 44.871094 C 180.148438 43.863281 177.589844 42.546875 175.589844 41.761719 C 173.128906 39.945312 169.121094 38.261719 167.335938 35.777344 " fill-opacity="1" fill-rule="nonzero"/><path fill="#393536" d="M 147.261719 28.914062 C 146.691406 26.976562 146.175781 25.136719 145.722656 23.410156 C 148.324219 23.585938 151.800781 23.859375 154.382812 24.273438 C 157.183594 26.082031 160.910156 28.507812 163.65625 30.394531 C 164.007812 31.726562 164.40625 33.144531 164.84375 34.636719 C 162.535156 34.382812 159.441406 34.078125 157.121094 34.054688 C 154.175781 32.492188 150.242188 30.414062 147.261719 28.914062 " fill-opacity="1" fill-rule="nonzero"/><path fill="#393536" d="M 124.78125 26.136719 C 124.089844 23.785156 123.464844 21.550781 122.910156 19.457031 C 125.714844 18.882812 129.46875 18.148438 132.308594 17.792969 C 135.472656 19.210938 139.683594 21.117188 142.808594 22.625 C 143.277344 24.410156 143.808594 26.308594 144.398438 28.308594 C 141.796875 28.800781 138.332031 29.492188 135.777344 30.191406 C 132.488281 28.945312 128.097656 27.300781 124.78125 26.136719 " fill-opacity="1" fill-rule="nonzero"/><path fill="#393536" d="M 76.425781 33.640625 C 75.609375 30.867188 74.875 28.238281 74.222656 25.769531 C 77.105469 23.738281 80.960938 21.054688 83.945312 19.183594 C 87.417969 19.5625 92.046875 20.089844 95.496094 20.613281 C 96.121094 22.984375 96.832031 25.511719 97.617188 28.175781 C 94.78125 30.078125 91.019531 32.640625 88.28125 34.679688 C 84.730469 34.320312 79.992188 33.859375 76.425781 33.640625 " fill-opacity="1" fill-rule="nonzero"/><path fill="#393536" d="M 53.097656 44.023438 C 52.289062 41.28125 51.558594 38.675781 50.914062 36.234375 C 53.503906 33.601562 56.984375 30.105469 59.707031 27.601562 C 63.085938 27.328125 67.601562 26.992188 70.992188 26.894531 C 71.644531 29.371094 72.382812 32.007812 73.203125 34.785156 C 70.4375 37.308594 66.765625 40.699219 64.109375 43.34375 C 60.804688 43.496094 56.390625 43.722656 53.097656 44.023438 " fill-opacity="1" fill-rule="nonzero"/><path fill="#393536" d="M 33.5 57.550781 C 32.75 55 32.070312 52.578125 31.472656 50.308594 C 33.539062 47.304688 36.320312 43.3125 38.511719 40.398438 C 41.371094 39.589844 45.191406 38.542969 48.09375 37.914062 C 48.734375 40.34375 49.460938 42.929688 50.261719 45.65625 C 47.960938 48.5625 44.910156 52.445312 42.71875 55.433594 C 39.941406 56.011719 36.238281 56.804688 33.5 57.550781 " fill-opacity="1" fill-rule="nonzero"/><path fill="#393536" d="M 18.242188 73.394531 C 17.585938 71.175781 16.996094 69.070312 16.476562 67.09375 C 17.976562 63.882812 20 59.613281 21.625 56.464844 C 23.867188 55.179688 26.878906 53.496094 29.214844 52.398438 C 29.804688 54.636719 30.476562 57.023438 31.214844 59.539062 C 29.4375 62.640625 27.078125 66.789062 25.398438 69.949219 C 23.222656 70.917969 20.324219 72.242188 18.242188 73.394531 " fill-opacity="1" fill-rule="nonzero"/><path fill="#393536" d="M 7.761719 90.773438 C 7.242188 89.007812 6.773438 87.332031 6.359375 85.757812 C 7.25 82.5 8.457031 78.160156 9.472656 74.9375 C 11.023438 73.242188 13.128906 71.011719 14.84375 69.480469 C 15.351562 71.410156 15.925781 73.464844 16.566406 75.628906 C 15.34375 78.769531 13.730469 82.960938 12.605469 86.136719 C 11.101562 87.46875 9.109375 89.277344 7.761719 90.773438 " fill-opacity="1" fill-rule="nonzero"/><path fill="#393536" d="M 2.519531 108.90625 C 2.160156 107.691406 1.835938 106.542969 1.554688 105.460938 C 1.78125 102.304688 2.113281 98.09375 2.476562 94.953125 C 3.28125 92.933594 4.394531 90.25 5.40625 88.332031 C 5.804688 89.84375 6.257812 91.453125 6.757812 93.152344 C 6.132812 96.175781 5.316406 100.210938 4.800781 103.253906 C 4.039062 104.917969 3.0625 107.160156 2.519531 108.90625 " fill-opacity="1" fill-rule="nonzero"/><path fill="#393536" d="M 2.953125 127.015625 C 2.78125 126.433594 2.625 125.882812 2.488281 125.363281 C 2.003906 122.457031 1.390625 118.574219 1.066406 115.644531 C 1.078125 113.382812 1.117188 110.359375 1.335938 108.109375 C 1.605469 109.117188 1.90625 110.195312 2.238281 111.328125 C 2.25 114.09375 2.285156 117.785156 2.4375 120.546875 C 2.519531 122.492188 2.671875 125.089844 2.953125 127.015625 " fill-opacity="1" fill-rule="nonzero"/><path fill="#393536" d="M 3.722656 130.472656 L 3.277344 128.816406 L 3.066406 127.972656 C 3.183594 128.414062 3.316406 128.882812 3.460938 129.375 L 4.269531 132.378906 C 4.105469 131.804688 3.878906 131.042969 3.722656 130.472656 " fill-opacity="1" fill-rule="nonzero"/><path fill="#393536" d="M 191.542969 55.847656 C 191.351562 55.277344 191.171875 54.726562 191.007812 54.199219 C 192.464844 55.824219 194.375 58.027344 195.652344 59.792969 L 198.3125 64.289062 L 196.082031 61.109375 C 194.746094 59.507812 192.597656 57.644531 191.542969 55.847656 " fill-opacity="1" fill-rule="nonzero"/><path fill="#393536" d="M 177.960938 46.867188 C 177.523438 45.558594 177.113281 44.292969 176.734375 43.078125 C 178.660156 43.910156 181.222656 45.0625 183.042969 46.109375 C 184.964844 48.011719 187.519531 50.550781 189.371094 52.523438 C 189.566406 53.144531 189.777344 53.792969 190 54.46875 C 188.511719 53.613281 186.5 52.503906 184.902344 51.875 C 182.832031 50.355469 179.496094 48.925781 177.960938 46.867188 " fill-opacity="1" fill-rule="nonzero"/><path fill="#393536" d="M 160.402344 41.234375 C 159.75 39.273438 159.136719 37.378906 158.570312 35.5625 C 160.851562 35.632812 163.898438 35.761719 166.160156 36.070312 C 168.683594 37.789062 172.046875 40.089844 174.527344 41.871094 C 174.933594 43.167969 175.371094 44.523438 175.835938 45.925781 C 173.882812 45.8125 171.265625 45.710938 169.3125 45.835938 C 166.648438 44.441406 162.367188 43.507812 160.402344 41.234375 " fill-opacity="1" fill-rule="nonzero"/><path fill="#393536" d="M 139.796875 39.039062 C 138.964844 36.542969 138.183594 34.125 137.460938 31.808594 C 139.996094 31.152344 143.386719 30.308594 145.964844 29.863281 C 148.960938 31.335938 152.953125 33.308594 155.917969 34.84375 C 156.507812 36.734375 157.144531 38.703125 157.824219 40.742188 C 155.523438 41.363281 152.460938 42.230469 150.21875 43.039062 C 147.097656 41.824219 142.933594 40.214844 139.796875 39.039062 " fill-opacity="1" fill-rule="nonzero"/><path fill="#393536" d="M 117.066406 40.378906 C 116.101562 37.476562 115.191406 34.667969 114.351562 31.980469 C 117.042969 30.632812 120.644531 28.855469 123.414062 27.679688 C 126.742188 28.832031 131.183594 30.378906 134.488281 31.601562 C 135.230469 33.976562 136.03125 36.453125 136.882812 39.011719 C 134.347656 40.320312 130.984375 42.089844 128.535156 43.546875 C 125.101562 42.574219 120.515625 41.289062 117.066406 40.378906 " fill-opacity="1" fill-rule="nonzero"/><path fill="#393536" d="M 93.132812 45.339844 C 92.085938 42.191406 91.105469 39.148438 90.195312 36.230469 C 92.941406 34.230469 96.621094 31.582031 99.460938 29.714844 C 102.988281 30.457031 107.683594 31.464844 111.1875 32.304688 C 112.039062 35.035156 112.957031 37.882812 113.9375 40.828125 C 111.28125 42.761719 107.75 45.359375 105.175781 47.40625 C 101.566406 46.753906 96.753906 45.902344 93.132812 45.339844 " fill-opacity="1" fill-rule="nonzero"/><path fill="#393536" d="M 68.976562 53.988281 C 67.910156 50.78125 66.90625 47.679688 65.976562 44.707031 C 68.671875 42.105469 72.273438 38.648438 75.066406 36.15625 C 78.640625 36.398438 83.398438 36.738281 86.957031 37.113281 C 87.875 40.046875 88.863281 43.109375 89.917969 46.273438 C 87.226562 48.765625 83.65625 52.097656 81.046875 54.671875 C 77.429688 54.433594 72.601562 54.125 68.976562 53.988281 " fill-opacity="1" fill-rule="nonzero"/><path fill="#393536" d="M 29.328125 78.789062 C 28.410156 76.023438 27.542969 73.347656 26.746094 70.785156 C 28.476562 67.652344 30.808594 63.480469 32.640625 60.40625 C 35.367188 59.726562 39.015625 58.851562 41.777344 58.332031 C 42.65625 61.15625 43.609375 64.097656 44.621094 67.136719 C 42.636719 70.164062 40 74.203125 38.089844 77.277344 C 35.453125 77.679688 31.9375 78.238281 29.328125 78.789062 " fill-opacity="1" fill-rule="nonzero"/><path fill="#393536" d="M 15.765625 93.308594 C 14.996094 91 14.273438 88.765625 13.605469 86.625 C 14.792969 83.476562 16.390625 79.28125 17.671875 76.171875 C 19.761719 75.097656 22.5625 73.699219 24.730469 72.808594 C 25.519531 75.324219 26.363281 77.949219 27.269531 80.664062 C 25.78125 83.679688 23.804688 87.707031 22.382812 90.757812 C 20.375 91.460938 17.703125 92.425781 15.765625 93.308594 " fill-opacity="1" fill-rule="nonzero"/><path fill="#393536" d="M 7.023438 108.347656 C 6.449219 106.621094 5.910156 104.953125 5.410156 103.355469 C 6 100.339844 6.804688 96.320312 7.5 93.328125 C 8.859375 91.914062 10.707031 90.054688 12.226562 88.808594 C 12.875 90.882812 13.570312 93.046875 14.316406 95.285156 C 13.363281 98.144531 12.097656 101.957031 11.214844 104.839844 C 9.910156 105.832031 8.179688 107.183594 7.023438 108.347656 " fill-opacity="1" fill-rule="nonzero"/><path fill="#393536" d="M 3.582031 123.246094 C 3.238281 122.207031 2.914062 121.203125 2.613281 120.242188 C 2.554688 117.507812 2.5 113.851562 2.570312 111.117188 C 3.140625 109.433594 3.929688 107.195312 4.71875 105.601562 C 5.195312 107.121094 5.703125 108.707031 6.25 110.347656 C 5.871094 112.90625 5.371094 116.324219 5.085938 118.898438 C 4.554688 120.171875 3.886719 121.898438 3.582031 123.246094 " fill-opacity="1" fill-rule="nonzero"/><path fill="#393536" d="M 5.328125 135.71875 C 5.125 135.09375 4.851562 134.261719 4.652344 133.632812 L 4.492188 133.109375 L 3.34375 128.765625 C 3.074219 126.882812 2.738281 124.359375 2.671875 122.457031 C 2.945312 123.328125 3.238281 124.238281 3.550781 125.179688 C 3.785156 127.320312 4.109375 130.179688 4.484375 132.304688 C 4.734375 133.328125 5 134.714844 5.328125 135.71875 " fill-opacity="1" fill-rule="nonzero"/><path fill="#393536" d="M 196.976562 62.632812 C 196.910156 62.449219 196.847656 62.273438 196.789062 62.097656 L 198.3125 64.289062 L 196.976562 62.632812 " fill-opacity="1" fill-rule="nonzero"/><path fill="#393536" d="M 187.28125 56.253906 C 186.90625 55.21875 186.550781 54.210938 186.207031 53.226562 C 187.707031 53.902344 189.699219 54.847656 191.078125 55.746094 C 192.484375 57.222656 194.347656 59.199219 195.675781 60.742188 C 195.777344 61.027344 195.878906 61.320312 195.988281 61.617188 C 194.976562 60.960938 193.601562 60.101562 192.472656 59.679688 C 190.921875 58.640625 188.445312 57.710938 187.28125 56.253906 " fill-opacity="1" fill-rule="nonzero"/><path fill="#393536" d="M 172.992188 52.757812 C 172.339844 50.960938 171.710938 49.195312 171.121094 47.480469 C 173.015625 47.40625 175.554688 47.339844 177.445312 47.5 C 179.554688 48.921875 182.363281 50.820312 184.445312 52.28125 C 184.820312 53.367188 185.214844 54.484375 185.628906 55.625 C 184.085938 55.703125 182.027344 55.859375 180.515625 56.160156 C 178.257812 55.136719 175.25 53.773438 172.992188 52.757812 " fill-opacity="1" fill-rule="nonzero"/><path fill="#393536" d="M 154.984375 52.105469 C 154.09375 49.648438 153.238281 47.242188 152.429688 44.898438 C 154.636719 44.128906 157.597656 43.121094 159.863281 42.546875 C 162.558594 43.855469 166.148438 45.609375 168.824219 46.957031 C 169.453125 48.761719 170.109375 50.617188 170.792969 52.507812 C 168.851562 53.300781 166.273438 54.398438 164.40625 55.355469 C 161.582031 54.378906 157.8125 53.074219 154.984375 52.105469 " fill-opacity="1" fill-rule="nonzero"/><path fill="#393536" d="M 111.34375 59.167969 C 110.136719 55.824219 108.976562 52.554688 107.871094 49.371094 C 110.441406 47.355469 113.882812 44.679688 116.535156 42.78125 C 119.996094 43.679688 124.609375 44.890625 128.054688 45.839844 C 129.058594 48.738281 130.113281 51.714844 131.210938 54.75 C 128.777344 56.757812 125.546875 59.457031 123.191406 61.554688 C 119.640625 60.824219 114.902344 59.859375 111.34375 59.167969 " fill-opacity="1" fill-rule="nonzero"/><path fill="#393536" d="M 64.011719 76.816406 C 62.753906 73.34375 61.546875 69.9375 60.398438 66.625 C 62.804688 63.710938 66.027344 59.832031 68.523438 56.996094 C 72.148438 57.167969 76.984375 57.414062 80.601562 57.6875 C 81.765625 61.042969 82.988281 64.488281 84.261719 68.011719 C 81.710938 70.867188 78.316406 74.683594 75.828125 77.597656 C 72.285156 77.34375 67.5625 77.011719 64.011719 76.816406 " fill-opacity="1" fill-rule="nonzero"/><path fill="#393536" d="M 43.65625 88.058594 C 42.488281 84.824219 41.363281 81.660156 40.296875 78.574219 C 42.261719 75.53125 44.894531 71.472656 46.9375 68.476562 C 50.109375 68.332031 54.34375 68.160156 57.523438 68.125 C 58.664062 71.414062 59.863281 74.800781 61.113281 78.253906 C 58.933594 81.210938 56.035156 85.164062 53.914062 88.164062 C 50.835938 88.101562 46.734375 88.027344 43.65625 88.058594 " fill-opacity="1" fill-rule="nonzero"/><path fill="#393536" d="M 27.074219 99.925781 C 26.054688 97.117188 25.078125 94.363281 24.152344 91.683594 C 25.636719 88.660156 27.628906 84.636719 29.179688 81.644531 C 31.792969 81.179688 35.28125 80.589844 37.914062 80.261719 C 38.96875 83.300781 40.074219 86.421875 41.226562 89.605469 C 39.476562 92.507812 37.148438 96.375 35.4375 99.300781 C 32.925781 99.445312 29.574219 99.65625 27.074219 99.925781 " fill-opacity="1" fill-rule="nonzero"/><path fill="#393536" d="M 7.351562 123.421875 C 6.792969 121.886719 6.257812 120.378906 5.75 118.910156 C 6.132812 116.367188 6.660156 112.980469 7.128906 110.453125 C 8.324219 109.402344 9.949219 108.023438 11.28125 107.148438 C 11.992188 109.199219 12.738281 111.308594 13.515625 113.457031 C 12.742188 115.8125 11.710938 118.953125 10.980469 121.320312 C 9.859375 121.886719 8.359375 122.671875 7.351562 123.421875 " fill-opacity="1" fill-rule="nonzero"/><path fill="#393536" d="M 5.269531 133.984375 C 5.003906 133.246094 4.746094 132.523438 4.503906 131.820312 C 4.25 129.71875 3.9375 126.910156 3.8125 124.796875 C 4.167969 123.535156 4.675781 121.851562 5.261719 120.675781 C 5.734375 122.046875 6.234375 123.457031 6.753906 124.890625 C 6.527344 126.785156 6.230469 129.3125 6.085938 131.214844 C 5.757812 132.015625 5.363281 133.121094 5.269531 133.984375 " fill-opacity="1" fill-rule="nonzero"/><path fill="#393536" d="M 6.070312 137.855469 C 5.894531 137.363281 5.664062 136.699219 5.492188 136.203125 L 4.773438 133.445312 C 4.980469 134.042969 5.199219 134.65625 5.425781 135.285156 C 5.683594 136.246094 5.964844 137.550781 6.300781 138.484375 L 6.070312 137.855469 " fill-opacity="1" fill-rule="nonzero"/><path fill="#393536" d="M 193.886719 62.324219 C 193.628906 61.664062 193.382812 61.011719 193.140625 60.371094 C 194.179688 60.832031 195.558594 61.507812 196.464844 62.191406 L 198.3125 64.289062 L 197.054688 63.753906 C 196.105469 63.324219 194.597656 63.082031 193.886719 62.324219 " fill-opacity="1" fill-rule="nonzero"/><path fill="#393536" d="M 183.335938 61.730469 C 182.753906 60.21875 182.183594 58.722656 181.636719 57.25 C 183.105469 56.976562 185.082031 56.640625 186.578125 56.597656 C 188.175781 57.550781 190.304688 58.820312 191.890625 59.800781 C 192.171875 60.558594 192.464844 61.324219 192.765625 62.101562 C 191.664062 62.429688 190.199219 62.917969 189.167969 63.425781 C 187.417969 62.929688 185.078125 62.261719 183.335938 61.730469 " fill-opacity="1" fill-rule="nonzero"/><path fill="#393536" d="M 168.457031 63.488281 C 167.582031 61.222656 166.730469 58.984375 165.90625 56.777344 C 167.75 55.835938 170.226562 54.601562 172.144531 53.828125 C 174.433594 54.792969 177.484375 56.070312 179.769531 57.035156 C 180.359375 58.613281 180.96875 60.214844 181.59375 61.832031 C 180.046875 62.855469 178 64.25 176.535156 65.390625 C 174.109375 64.835938 170.875 64.082031 168.457031 63.488281 " fill-opacity="1" fill-rule="nonzero"/><path fill="#393536" d="M 150.066406 67.417969 C 148.949219 64.53125 147.863281 61.671875 146.816406 58.859375 C 148.953125 57.308594 151.820312 55.257812 154.042969 53.828125 C 156.894531 54.75 160.699219 55.984375 163.546875 56.90625 C 164.402344 59.203125 165.289062 61.535156 166.199219 63.890625 C 164.300781 65.519531 161.785156 67.710938 159.964844 69.425781 C 156.996094 68.832031 153.03125 68.035156 150.066406 67.417969 " fill-opacity="1" fill-rule="nonzero"/><path fill="#393536" d="M 128.992188 73.332031 C 127.695312 69.980469 126.433594 66.664062 125.21875 63.394531 C 127.566406 61.304688 130.710938 58.53125 133.136719 56.53125 C 136.417969 57.367188 140.796875 58.476562 144.074219 59.320312 C 145.148438 62.203125 146.261719 65.132812 147.40625 68.089844 C 145.242188 70.234375 142.371094 73.109375 140.269531 75.3125 C 136.886719 74.722656 132.375 73.933594 128.992188 73.332031 " fill-opacity="1" fill-rule="nonzero"/><path fill="#393536" d="M 82.152344 90.402344 C 80.722656 86.699219 79.332031 83.03125 77.984375 79.417969 C 80.496094 76.527344 83.851562 72.675781 86.417969 69.832031 C 90.136719 70.273438 95.097656 70.875 98.808594 71.375 C 100.136719 74.9375 101.511719 78.558594 102.925781 82.214844 C 100.460938 85.066406 97.179688 88.875 94.742188 91.75 C 90.96875 91.339844 85.933594 90.792969 82.152344 90.402344 " fill-opacity="1" fill-rule="nonzero"/><path fill="#393536" d="M 40.699219 110.207031 C 39.464844 107.011719 38.261719 103.847656 37.101562 100.730469 C 38.851562 97.832031 41.191406 93.964844 42.980469 91.089844 C 46.039062 91.113281 50.113281 91.160156 53.167969 91.269531 C 54.445312 94.695312 55.765625 98.175781 57.125 101.6875 C 55.152344 104.496094 52.523438 108.242188 50.566406 111.0625 C 47.609375 110.785156 43.664062 110.425781 40.699219 110.207031 " fill-opacity="1" fill-rule="nonzero"/><path fill="#393536" d="M 25.253906 119.527344 C 24.222656 116.859375 23.222656 114.21875 22.253906 111.617188 C 23.550781 108.9375 25.285156 105.363281 26.613281 102.699219 C 29.09375 102.503906 32.40625 102.269531 34.894531 102.1875 C 36.03125 105.242188 37.210938 108.347656 38.421875 111.480469 C 36.847656 114.027344 34.746094 117.417969 33.171875 119.964844 C 30.796875 119.808594 27.632812 119.601562 25.253906 119.527344 " fill-opacity="1" fill-rule="nonzero"/><path fill="#393536" d="M 14.113281 127.933594 C 13.339844 125.941406 12.589844 123.96875 11.867188 122.027344 C 12.660156 119.691406 13.722656 116.585938 14.554688 114.265625 C 16.359375 113.84375 18.773438 113.3125 20.605469 113.039062 C 21.542969 115.558594 22.515625 118.117188 23.515625 120.703125 C 22.382812 122.859375 20.867188 125.734375 19.730469 127.890625 C 18.042969 127.867188 15.796875 127.84375 14.113281 127.933594 " fill-opacity="1" fill-rule="nonzero"/><path fill="#393536" d="M 7.847656 135.03125 C 7.382812 133.832031 6.933594 132.644531 6.496094 131.476562 C 6.722656 129.609375 7.042969 127.125 7.34375 125.269531 C 8.359375 124.628906 9.746094 123.808594 10.855469 123.34375 C 11.542969 125.191406 12.253906 127.066406 12.984375 128.957031 C 12.339844 130.613281 11.476562 132.824219 10.84375 134.484375 C 9.9375 134.597656 8.71875 134.753906 7.847656 135.03125 " fill-opacity="1" fill-rule="nonzero"/><path fill="#393536" d="M 6.957031 140.226562 L 6.675781 139.488281 L 6.433594 138.84375 C 6.132812 137.757812 5.710938 136.308594 5.511719 135.199219 C 5.632812 134.410156 5.828125 133.34375 6.191406 132.632812 C 6.585938 133.691406 6.992188 134.769531 7.414062 135.851562 C 7.296875 136.910156 7.140625 138.324219 7.101562 139.386719 C 7.011719 139.625 6.890625 139.980469 6.957031 140.226562 " fill-opacity="1" fill-rule="nonzero"/><path fill="#393536" d="M 197.742188 64.609375 C 197.664062 64.414062 197.585938 64.21875 197.507812 64.027344 L 198.3125 64.289062 L 197.742188 64.609375 " fill-opacity="1" fill-rule="nonzero"/><path fill="#393536" d="M 191.632812 67.503906 C 191.179688 66.398438 190.734375 65.292969 190.296875 64.195312 C 191.273438 63.707031 192.59375 63.0625 193.644531 62.761719 C 194.605469 63.117188 195.886719 63.589844 196.859375 63.910156 C 196.984375 64.230469 197.113281 64.546875 197.246094 64.867188 C 196.660156 65.5 195.898438 66.375 195.378906 67.0625 C 194.261719 67.25 192.765625 67.453125 191.632812 67.503906 " fill-opacity="1" fill-rule="nonzero"/><path fill="#393536" d="M 165.347656 78.890625 C 164.269531 76.261719 163.207031 73.632812 162.167969 71.015625 C 163.957031 69.300781 166.355469 67.023438 168.21875 65.390625 C 170.648438 65.914062 173.890625 66.605469 176.332031 67.082031 C 177.132812 69.097656 177.949219 71.121094 178.78125 73.148438 C 177.285156 75.003906 175.304688 77.492188 173.867188 79.390625 C 171.308594 79.269531 167.898438 79.09375 165.347656 78.890625 " fill-opacity="1" fill-rule="nonzero"/><path fill="#393536" d="M 146.707031 86.734375 C 145.398438 83.542969 144.117188 80.355469 142.855469 77.183594 C 144.929688 74.980469 147.703125 72.042969 149.84375 69.898438 C 152.820312 70.460938 156.792969 71.210938 159.777344 71.738281 C 160.84375 74.4375 161.941406 77.148438 163.050781 79.863281 C 161.21875 82.183594 158.785156 85.285156 156.996094 87.636719 C 153.910156 87.386719 149.792969 87.042969 146.707031 86.734375 " fill-opacity="1" fill-rule="nonzero"/><path fill="#393536" d="M 57.289062 123.289062 C 55.871094 119.828125 54.472656 116.371094 53.109375 112.929688 C 55.105469 110.125 57.765625 106.382812 59.777344 103.589844 C 63.207031 103.953125 67.785156 104.441406 71.214844 104.832031 C 72.671875 108.507812 74.164062 112.203125 75.679688 115.898438 C 73.515625 118.660156 70.625 122.34375 68.457031 125.101562 C 65.105469 124.558594 60.636719 123.828125 57.289062 123.289062 " fill-opacity="1" fill-rule="nonzero"/><path fill="#393536" d="M 24.234375 136.285156 C 23.25 133.890625 22.285156 131.492188 21.339844 129.113281 C 22.535156 126.980469 24.125 124.140625 25.3125 122.007812 C 27.683594 122.167969 30.84375 122.398438 33.207031 122.628906 C 34.367188 125.550781 35.550781 128.484375 36.753906 131.421875 C 35.273438 133.414062 33.296875 136.070312 31.777344 138.03125 C 29.515625 137.496094 26.5 136.785156 24.234375 136.285156 " fill-opacity="1" fill-rule="nonzero"/><path fill="#393536" d="M 13.835938 140.1875 C 13.164062 138.542969 12.496094 136.894531 11.847656 135.257812 C 12.558594 133.632812 13.503906 131.460938 14.214844 129.835938 C 15.894531 129.855469 18.132812 129.902344 19.808594 130.015625 C 20.71875 132.304688 21.648438 134.609375 22.589844 136.910156 C 21.535156 138.363281 20.117188 140.296875 19.003906 141.710938 C 17.457031 141.242188 15.394531 140.621094 13.835938 140.1875 " fill-opacity="1" fill-rule="nonzero"/><path fill="#393536" d="M 8.382812 142.03125 C 8.058594 141.238281 7.742188 140.449219 7.429688 139.664062 C 7.578125 138.632812 7.796875 137.265625 8 136.246094 C 8.878906 136.105469 10.066406 135.960938 10.957031 135.949219 C 11.5625 137.480469 12.183594 139.015625 12.816406 140.554688 C 12.238281 141.378906 11.464844 142.480469 10.828125 143.257812 C 10.09375 142.890625 8.941406 142.632812 8.382812 142.03125 " fill-opacity="1" fill-rule="nonzero"/><path fill="#393536" d="M 7.84375 142.4375 C 7.449219 141.472656 7.449219 141.472656 7.253906 140.988281 L 7.097656 140.585938 C 7.125 140.449219 7.164062 140.269531 7.195312 140.136719 L 7.257812 140.101562 C 7.519531 140.765625 7.789062 141.4375 8.066406 142.105469 C 8.011719 142.234375 8.003906 142.460938 7.882812 142.53125 L 7.84375 142.4375 " fill-opacity="1" fill-rule="nonzero"/><path fill="#393536" d="M 196.726562 69.261719 C 196.445312 68.601562 196.160156 67.933594 195.878906 67.269531 C 196.355469 66.554688 196.988281 65.597656 197.53125 64.933594 L 198.3125 64.289062 L 198.210938 66.527344 C 197.851562 67.386719 197.316406 68.535156 196.726562 69.261719 " fill-opacity="1" fill-rule="nonzero"/><path fill="#393536" d="M 189.871094 77.664062 C 189.210938 76.148438 188.5625 74.621094 187.917969 73.085938 C 188.894531 71.722656 190.207031 69.90625 191.25 68.589844 C 192.417969 68.441406 193.980469 68.238281 195.117188 67.933594 C 195.449219 68.722656 195.78125 69.507812 196.117188 70.285156 C 195.550781 71.867188 194.792969 73.976562 194.226562 75.558594 C 192.953125 76.253906 191.226562 77.148438 189.871094 77.664062 " fill-opacity="1" fill-rule="nonzero"/><path fill="#393536" d="M 178.238281 87.339844 C 177.253906 85.074219 176.277344 82.785156 175.3125 80.488281 C 176.71875 78.570312 178.601562 76.015625 180.0625 74.132812 C 181.992188 74.128906 184.570312 74.109375 186.496094 73.984375 C 187.183594 75.628906 187.882812 77.261719 188.585938 78.882812 C 187.53125 80.996094 186.132812 83.8125 185.101562 85.933594 C 183.054688 86.410156 180.3125 87.015625 178.238281 87.339844 " fill-opacity="1" fill-rule="nonzero"/><path fill="#393536" d="M 75.199219 137.777344 C 73.65625 134.222656 72.125 130.632812 70.613281 127.03125 C 72.800781 124.277344 75.714844 120.605469 77.898438 117.847656 C 81.597656 118.347656 86.527344 119.003906 90.230469 119.476562 C 91.804688 123.226562 93.398438 126.960938 95.007812 130.664062 C 92.703125 133.433594 89.628906 137.125 87.300781 139.871094 C 83.667969 139.257812 78.824219 138.4375 75.199219 137.777344 " fill-opacity="1" fill-rule="nonzero"/><path fill="#393536" d="M 54.503906 143.878906 C 53.117188 140.675781 51.738281 137.449219 50.378906 134.207031 C 52.269531 131.800781 54.789062 128.59375 56.65625 126.167969 C 59.992188 126.742188 64.433594 127.507812 67.765625 128.082031 C 69.265625 131.648438 70.78125 135.199219 72.308594 138.71875 C 70.242188 141.082031 67.476562 144.230469 65.363281 146.554688 C 62.105469 145.757812 57.757812 144.695312 54.503906 143.878906 " fill-opacity="1" fill-rule="nonzero"/><path fill="#393536" d="M 36.777344 147.628906 C 35.617188 144.957031 34.46875 142.261719 33.332031 139.554688 C 34.878906 137.609375 36.933594 135.007812 38.4375 133.03125 C 41.28125 133.621094 45.074219 134.414062 47.914062 135.023438 C 49.25 138.203125 50.605469 141.375 51.964844 144.511719 C 50.1875 146.375 47.808594 148.855469 45.964844 150.65625 C 43.207031 149.753906 39.53125 148.546875 36.777344 147.628906 " fill-opacity="1" fill-rule="nonzero"/><path fill="#393536" d="M 22.71875 148.925781 C 21.851562 146.929688 20.992188 144.917969 20.144531 142.894531 C 21.289062 141.503906 22.796875 139.632812 23.886719 138.199219 C 26.125 138.765625 29.113281 139.527344 31.34375 140.121094 C 32.449219 142.742188 33.5625 145.355469 34.6875 147.945312 C 33.253906 149.226562 31.335938 150.925781 29.824219 152.109375 C 27.691406 151.160156 24.355469 150.589844 22.71875 148.925781 " fill-opacity="1" fill-rule="nonzero"/><path fill="#393536" d="M 13.027344 147.660156 C 12.503906 146.460938 11.988281 145.25 11.476562 144.03125 C 12.15625 143.277344 13.039062 142.257812 13.648438 141.449219 C 15.175781 141.960938 17.203125 142.648438 18.71875 143.175781 C 19.527344 145.097656 20.34375 147.011719 21.164062 148.90625 C 20.144531 149.539062 18.769531 150.378906 17.667969 150.855469 C 16.265625 149.910156 14.085938 148.976562 13.027344 147.660156 " fill-opacity="1" fill-rule="nonzero"/><path fill="#393536" d="M 8.574219 144.15625 L 8.46875 143.917969 C 8.332031 143.59375 8.148438 143.167969 8.011719 142.847656 C 8.140625 142.789062 8.296875 142.667969 8.378906 142.550781 C 9.070312 143 9.996094 143.585938 10.703125 144.007812 C 11.164062 145.109375 11.632812 146.207031 12.105469 147.296875 C 11.519531 147.242188 10.710938 147.121094 10.203125 146.824219 C 9.691406 146.039062 8.964844 145.011719 8.574219 144.15625 " fill-opacity="1" fill-rule="nonzero"/><path fill="#393536" d="M 198.601562 66.589844 C 198.519531 66.40625 198.433594 66.21875 198.351562 66.03125 L 198.3125 64.289062 L 198.601562 66.589844 " fill-opacity="1" fill-rule="nonzero"/><path fill="#393536" d="M 196.527344 78.761719 C 196.046875 77.726562 195.570312 76.671875 195.09375 75.605469 C 195.585938 73.988281 196.242188 71.832031 196.726562 70.210938 C 197.261719 69.355469 197.949219 68.171875 198.242188 67.207031 C 198.378906 67.515625 198.519531 67.820312 198.65625 68.121094 C 198.664062 69.976562 198.65625 72.457031 198.585938 74.3125 C 198.050781 75.683594 197.296875 77.507812 196.527344 78.761719 " fill-opacity="1" fill-rule="nonzero"/><g clip-path="url(#03573b5037)"><path fill="#393536" d="M 21.128906 156.964844 C 20.417969 155.421875 19.707031 153.851562 18.996094 152.261719 C 20.140625 151.761719 21.652344 151.050781 22.714844 150.398438 C 24.839844 151.425781 27.671875 152.796875 29.808594 153.800781 C 30.800781 156.027344 31.796875 158.226562 32.792969 160.382812 C 31.332031 160.855469 29.371094 161.464844 27.859375 161.730469 C 25.824219 160.320312 22.691406 158.878906 21.128906 156.964844 " fill-opacity="1" fill-rule="nonzero"/></g><path fill="#393536" d="M 11.882812 150.078125 C 11.542969 149.339844 11.199219 148.585938 10.859375 147.824219 C 11.476562 148.078125 12.347656 148.382812 13.019531 148.386719 C 14.390625 149.441406 16.226562 150.832031 17.632812 151.835938 C 18.296875 153.324219 18.964844 154.792969 19.628906 156.230469 C 18.53125 155.972656 17.066406 155.578125 16.054688 155.078125 C 14.769531 153.605469 12.890625 151.753906 11.882812 150.078125 " fill-opacity="1" fill-rule="nonzero"/><path fill="#393536" d="M 9.175781 145.511719 C 9.042969 145.21875 8.871094 144.835938 8.742188 144.542969 C 9.164062 145.289062 9.683594 146.308594 10.164062 147.015625 C 10.453125 147.664062 10.742188 148.304688 11.035156 148.933594 L 9.742188 146.746094 C 9.570312 146.375 9.339844 145.882812 9.175781 145.511719 " fill-opacity="1" fill-rule="nonzero"/><path fill="#393536" d="M 199.707031 75.703125 C 199.441406 75.167969 199.164062 74.601562 198.878906 73.996094 L 198.871094 73.984375 C 198.855469 72.082031 198.832031 69.550781 198.722656 67.65625 L 198.3125 64.289062 L 199.390625 69.027344 C 199.566406 71.023438 199.773438 73.699219 199.707031 75.703125 " fill-opacity="1" fill-rule="nonzero"/><path fill="#393536" d="M 199.40625 68.203125 C 199.339844 68.082031 199.269531 67.953125 199.195312 67.808594 L 198.3125 64.289062 L 199.40625 68.203125 " fill-opacity="1" fill-rule="nonzero"/><path fill="#393536" d="M 199.96875 69.097656 C 199.929688 69.050781 199.886719 68.988281 199.835938 68.921875 L 198.3125 64.289062 L 199.96875 69.097656 " fill-opacity="1" fill-rule="nonzero"/></svg>